# xmcd
#
# Track frame offsets:
#   150
#   15824
#   27786
#   47361
#   62391
#   78562
#   97905
#   113246
#   130541
#   143466
#   165234
#   179141
#   192723
#   209678
#   227108
#   239326
#   255594
#   270799
#   287819
#   304811
#
# Disc length: 4262 seconds
#
# Revision: 0
# Processed by: cddbd v1.5.2PL0 Copyright (c) Steve Scherf et al.
# Submitted via: uFREEDB ActiveX Control 1.5
#
DISCID=0210a414
DTITLE=Kenny Rogers - The best of
DYEAR=1900
DGENRE=Country
TTITLE0=When I Fall in Love 
TTITLE1=Always
TTITLE2=She Believes in Me 
TTITLE3=Misty
TTITLE4=Evergreen
TTITLE5=I Only Have Eyes for You 
TTITLE6=Unforgettable 
TTITLE7=Endless Love 
TTITLE8=As Time Goes By 
TTITLE9=Have I Told You Lately That I Love You 
TTITLE10=You Send Me
TTITLE11=I Will Always Love You 
TTITLE12=Stardust
TTITLE13=I Swear
TTITLE14=It Had to Be You
TTITLE15=The Wind Beneath My Wings
TTITLE16=I Can't Help Falling in Love 
TTITLE17=You Decorated My Life 
TTITLE18=When a Man Loves a Woman 
TTITLE19=Crazy 
EXTD=
EXTT0=
EXTT1=
EXTT2=
EXTT3=
EXTT4=
EXTT5=
EXTT6=
EXTT7=
EXTT8=
EXTT9=
EXTT10=
EXTT11=
EXTT12=
EXTT13=
EXTT14=
EXTT15=
EXTT16=
EXTT17=
EXTT18=
EXTT19=
PLAYORDER=
